<svg width="588" height="527" viewBox="0 0 588 527" fill="none" xmlns="http://www.w3.org/2000/svg">
<path d="M225.976 138.668C177.201 133.48 182.529 63.1476 231.517 65.3454C280.293 70.5347 274.964 140.867 225.976 138.668Z" fill="#F4E8D4"/>
<path d="M160.732 262.529C111.957 257.34 117.285 187.008 166.272 189.206C215.049 194.395 209.72 264.727 160.732 262.529Z" fill="#F4E8D4"/>
<path d="M73.4704 162.454C24.6948 157.266 30.0235 86.9337 79.0107 89.1315C127.787 94.3208 122.458 164.653 73.4704 162.454Z" fill="#F4E8D4"/>
<mask id="path-4-outside-1_2154_118" maskUnits="userSpaceOnUse" x="337.684" y="239.674" width="213" height="287" fill="black">
<rect fill="white" x="337.684" y="239.674" width="213" height="287"/>
<path d="M351.712 344.242C350.621 344.597 349.609 345.184 348.774 345.971C346.348 348.098 345.269 351.378 345.97 354.525C347.951 360.066 352.636 364.233 358.389 365.563C360.526 379.259 369.206 426.998 386.832 430.056C387.489 430.1 388.134 430.1 388.791 430.056C397.426 430.056 408.688 421.191 416.789 413.788C422.576 423.185 428.852 429.923 435.084 429.923C440.181 429.469 444.932 427.164 448.438 423.451C449.94 428.272 451.91 432.926 454.313 437.37C449.005 457.66 445.923 478.47 445.099 499.426C440.782 499.326 436.686 501.31 434.105 504.745C432.513 507.493 432.513 510.862 434.105 513.61C437.777 518.464 443.686 521.113 449.773 520.614H450.485C453.512 520.681 456.461 519.572 458.676 517.511C460.79 515.239 461.713 512.104 461.168 509.045C460.367 504.357 456.695 500.689 451.998 499.869C452.633 481.496 455.092 463.234 459.343 445.348C464.429 452.484 470.66 458.734 477.771 463.876C490.001 472.807 504.757 477.661 519.925 477.75C519.213 480.099 519.335 482.626 520.281 484.886C521.572 487.789 524.321 489.784 527.492 490.117H528.293C534.046 489.496 539.176 486.205 542.137 481.251C544.117 478.747 544.997 475.545 544.585 472.386C543.861 469.361 541.747 466.857 538.887 465.604C534.258 463.588 528.839 464.807 525.533 468.619C524.677 469.472 523.887 470.392 523.174 471.367C508.352 471.921 493.763 467.455 481.821 458.689C473.598 452.761 466.709 445.203 461.568 436.482C465.274 422.331 470.059 408.49 475.901 395.081C490.501 391.734 504.611 386.537 517.875 379.611C519.177 378.88 519.834 377.373 519.477 375.932C518.632 372.608 498.957 294.105 492.369 277.972C486.995 265.073 476.601 254.889 463.571 249.737H463.259C454.746 246.512 445.632 245.182 436.552 245.836C422.13 246.678 411.981 250.667 405.392 258.159C398.002 266.669 395.376 279.479 397.068 298.363C399.828 328.683 417.277 389.318 420.57 400.666L418.167 403.237C413.437 393.729 409.264 383.966 405.659 373.983V373.673C403.656 368.176 401.831 362.813 400.228 357.671C401.096 357.239 401.898 356.663 402.587 355.987C404.657 353.671 405.559 350.535 405.036 347.476C404.145 342.456 400.05 338.622 394.976 338.035C393.507 337.735 392.016 337.58 390.525 337.591L385.45 316.359C385.094 314.852 383.748 313.788 382.201 313.788H347.081C345.991 313.766 344.956 314.287 344.31 315.173C343.676 316.049 343.509 317.19 343.876 318.221L351.712 344.242ZM435.085 423.186C431.257 423.186 426.538 417.557 421.731 409.046L426.182 404.303C428.942 403.949 435.886 403.018 445.011 401.422C445.067 406.298 445.601 411.152 446.614 415.917C443.854 419.729 439.725 422.333 435.085 423.186ZM451.643 400.181L458.365 398.896C456.54 402.176 454.448 405.589 452.178 408.869C451.788 406.054 451.61 403.206 451.643 400.358V400.181ZM457.119 427.619C455.794 424.449 454.693 421.192 453.825 417.867C458.899 411.473 463.25 404.547 466.822 397.211H467.802C463.707 407.151 460.134 417.301 457.119 427.619ZM410.649 262.326C415.857 256.298 424.492 253.018 437.045 252.308H441.051C447.271 252.242 453.459 253.25 459.345 255.278C460.236 268.576 451.289 291.182 442.609 301.865C439.404 305.855 437.846 306.032 437.846 306.032C437.323 306.032 436.822 305.788 436.511 305.367C433.795 302.619 432.816 293.444 432.994 287.637C432.76 286.063 431.447 284.877 429.856 284.8C428.253 284.722 426.829 285.786 426.451 287.327C426.005 293.133 423.691 301.201 420.842 301.201C420.441 301.223 420.052 301.034 419.818 300.713C417.726 296.801 416.836 292.357 417.281 287.947C417.325 286.229 416.09 284.756 414.388 284.489C412.674 284.29 411.094 285.387 410.693 287.06C410.125 289.997 408.868 292.756 407.043 295.128C405.007 292.402 403.772 289.166 403.482 285.775C403.081 277.375 405.619 269.086 410.649 262.326ZM404.195 301.2C404.94 301.554 405.764 301.743 406.598 301.731C408.524 301.687 410.36 300.878 411.673 299.471C412.251 301.643 413.331 303.649 414.833 305.322C416.335 306.951 418.45 307.86 420.664 307.848C423.78 307.782 426.629 306.098 428.187 303.416C428.843 305.732 430.012 307.859 431.614 309.666C433.206 311.361 435.431 312.314 437.757 312.325C441.518 311.849 444.879 309.754 446.971 306.607C457.732 292.423 464.309 275.546 465.978 257.847C474.981 262.79 482.069 270.591 486.098 280.01C491.973 294.638 508.888 361.128 512.36 375.045C486.409 388.875 438.87 396.011 426.896 397.652C423.201 384.93 407.8 330.765 404.195 301.2ZM400.456 378.859C404.128 388.91 408.435 398.706 413.364 408.203C404.462 416.581 393.823 424.648 387.947 423.629C380.336 422.299 372.991 402.086 368.318 381.873L400.456 378.859ZM384.031 338.566C381.683 339.341 379.68 340.904 378.377 342.998C376.719 345.702 376.63 349.082 378.155 351.863C381.816 356.739 387.736 359.399 393.823 358.911C394.803 362.014 382.072 333.069 384.031 338.566L362.177 344.242L367.517 365.56L368.407 365.25C371 363.621 372.713 360.895 373.036 357.848C373.637 352.772 370.81 347.918 366.092 345.924C363.733 344.627 361.151 343.774 358.48 343.397L362.177 344.242L384.031 338.566Z"/>
</mask>
<path d="M351.712 344.242C350.621 344.597 349.609 345.184 348.774 345.971C346.348 348.098 345.269 351.378 345.97 354.525C347.951 360.066 352.636 364.233 358.389 365.563C360.526 379.259 369.206 426.998 386.832 430.056C387.489 430.1 388.134 430.1 388.791 430.056C397.426 430.056 408.688 421.191 416.789 413.788C422.576 423.185 428.852 429.923 435.084 429.923C440.181 429.469 444.932 427.164 448.438 423.451C449.94 428.272 451.91 432.926 454.313 437.37C449.005 457.66 445.923 478.47 445.099 499.426C440.782 499.326 436.686 501.31 434.105 504.745C432.513 507.493 432.513 510.862 434.105 513.61C437.777 518.464 443.686 521.113 449.773 520.614H450.485C453.512 520.681 456.461 519.572 458.676 517.511C460.79 515.239 461.713 512.104 461.168 509.045C460.367 504.357 456.695 500.689 451.998 499.869C452.633 481.496 455.092 463.234 459.343 445.348C464.429 452.484 470.66 458.734 477.771 463.876C490.001 472.807 504.757 477.661 519.925 477.75C519.213 480.099 519.335 482.626 520.281 484.886C521.572 487.789 524.321 489.784 527.492 490.117H528.293C534.046 489.496 539.176 486.205 542.137 481.251C544.117 478.747 544.997 475.545 544.585 472.386C543.861 469.361 541.747 466.857 538.887 465.604C534.258 463.588 528.839 464.807 525.533 468.619C524.677 469.472 523.887 470.392 523.174 471.367C508.352 471.921 493.763 467.455 481.821 458.689C473.598 452.761 466.709 445.203 461.568 436.482C465.274 422.331 470.059 408.49 475.901 395.081C490.501 391.734 504.611 386.537 517.875 379.611C519.177 378.88 519.834 377.373 519.477 375.932C518.632 372.608 498.957 294.105 492.369 277.972C486.995 265.073 476.601 254.889 463.571 249.737H463.259C454.746 246.512 445.632 245.182 436.552 245.836C422.13 246.678 411.981 250.667 405.392 258.159C398.002 266.669 395.376 279.479 397.068 298.363C399.828 328.683 417.277 389.318 420.57 400.666L418.167 403.237C413.437 393.729 409.264 383.966 405.659 373.983V373.673C403.656 368.176 401.831 362.813 400.228 357.671C401.096 357.239 401.898 356.663 402.587 355.987C404.657 353.671 405.559 350.535 405.036 347.476C404.145 342.456 400.05 338.622 394.976 338.035C393.507 337.735 392.016 337.58 390.525 337.591L385.45 316.359C385.094 314.852 383.748 313.788 382.201 313.788H347.081C345.991 313.766 344.956 314.287 344.31 315.173C343.676 316.049 343.509 317.19 343.876 318.221L351.712 344.242ZM435.085 423.186C431.257 423.186 426.538 417.557 421.731 409.046L426.182 404.303C428.942 403.949 435.886 403.018 445.011 401.422C445.067 406.298 445.601 411.152 446.614 415.917C443.854 419.729 439.725 422.333 435.085 423.186ZM451.643 400.181L458.365 398.896C456.54 402.176 454.448 405.589 452.178 408.869C451.788 406.054 451.61 403.206 451.643 400.358V400.181ZM457.119 427.619C455.794 424.449 454.693 421.192 453.825 417.867C458.899 411.473 463.25 404.547 466.822 397.211H467.802C463.707 407.151 460.134 417.301 457.119 427.619ZM410.649 262.326C415.857 256.298 424.492 253.018 437.045 252.308H441.051C447.271 252.242 453.459 253.25 459.345 255.278C460.236 268.576 451.289 291.182 442.609 301.865C439.404 305.855 437.846 306.032 437.846 306.032C437.323 306.032 436.822 305.788 436.511 305.367C433.795 302.619 432.816 293.444 432.994 287.637C432.76 286.063 431.447 284.877 429.856 284.8C428.253 284.722 426.829 285.786 426.451 287.327C426.005 293.133 423.691 301.201 420.842 301.201C420.441 301.223 420.052 301.034 419.818 300.713C417.726 296.801 416.836 292.357 417.281 287.947C417.325 286.229 416.09 284.756 414.388 284.489C412.674 284.29 411.094 285.387 410.693 287.06C410.125 289.997 408.868 292.756 407.043 295.128C405.007 292.402 403.772 289.166 403.482 285.775C403.081 277.375 405.619 269.086 410.649 262.326ZM404.195 301.2C404.94 301.554 405.764 301.743 406.598 301.731C408.524 301.687 410.36 300.878 411.673 299.471C412.251 301.643 413.331 303.649 414.833 305.322C416.335 306.951 418.45 307.86 420.664 307.848C423.78 307.782 426.629 306.098 428.187 303.416C428.843 305.732 430.012 307.859 431.614 309.666C433.206 311.361 435.431 312.314 437.757 312.325C441.518 311.849 444.879 309.754 446.971 306.607C457.732 292.423 464.309 275.546 465.978 257.847C474.981 262.79 482.069 270.591 486.098 280.01C491.973 294.638 508.888 361.128 512.36 375.045C486.409 388.875 438.87 396.011 426.896 397.652C423.201 384.93 407.8 330.765 404.195 301.2ZM400.456 378.859C404.128 388.91 408.435 398.706 413.364 408.203C404.462 416.581 393.823 424.648 387.947 423.629C380.336 422.299 372.991 402.086 368.318 381.873L400.456 378.859ZM384.031 338.566C381.683 339.341 379.68 340.904 378.377 342.998C376.719 345.702 376.63 349.082 378.155 351.863C381.816 356.739 387.736 359.399 393.823 358.911C394.803 362.014 382.072 333.069 384.031 338.566L362.177 344.242L367.517 365.56L368.407 365.25C371 363.621 372.713 360.895 373.036 357.848C373.637 352.772 370.81 347.918 366.092 345.924C363.733 344.627 361.151 343.774 358.48 343.397L362.177 344.242L384.031 338.566Z" fill="#CEE9FF"/>
<path d="M384.031 338.566L383.276 335.662L361.422 341.338L362.177 344.242L362.931 347.146L384.785 341.469L384.031 338.566ZM351.712 344.242L353.567 349.948L359.15 348.133L357.457 342.512L351.712 344.242ZM348.774 345.971L352.73 350.482L352.812 350.41L352.89 350.336L348.774 345.971ZM345.97 354.525L340.113 355.83L340.195 356.194L340.32 356.545L345.97 354.525ZM358.389 365.563L364.317 364.638L363.692 360.63L359.74 359.717L358.389 365.563ZM386.832 430.056L385.807 435.968L386.116 436.021L386.428 436.042L386.832 430.056ZM388.791 430.056V424.056H388.589L388.387 424.07L388.791 430.056ZM416.789 413.788L421.898 410.642L418.096 404.467L412.742 409.359L416.789 413.788ZM435.084 429.923V435.923H435.351L435.617 435.899L435.084 429.923ZM448.438 423.451L454.166 421.666L451.115 411.877L444.075 419.332L448.438 423.451ZM454.313 437.37L460.118 438.888L460.717 436.598L459.591 434.515L454.313 437.37ZM445.099 499.426L444.961 505.425L450.863 505.561L451.095 499.662L445.099 499.426ZM434.105 504.745L429.308 501.14L429.092 501.428L428.912 501.739L434.105 504.745ZM434.105 513.61L428.912 516.617L429.097 516.936L429.32 517.231L434.105 513.61ZM449.773 520.614V514.614H449.528L449.283 514.634L449.773 520.614ZM450.485 520.614L450.617 514.616L450.551 514.614H450.485V520.614ZM458.676 517.511L462.764 521.903L462.921 521.756L463.068 521.599L458.676 517.511ZM461.168 509.045L455.254 510.056L455.258 510.077L455.261 510.098L461.168 509.045ZM451.998 499.869L446.002 499.662L445.822 504.881L450.966 505.78L451.998 499.869ZM459.343 445.348L464.229 441.865L456.561 431.105L453.506 443.96L459.343 445.348ZM477.771 463.876L481.31 459.03L481.298 459.022L481.287 459.013L477.771 463.876ZM519.925 477.75L525.667 479.49L527.999 471.797L519.96 471.75L519.925 477.75ZM520.281 484.886L514.746 487.202L514.772 487.263L514.799 487.324L520.281 484.886ZM527.492 490.117L526.866 496.084L527.178 496.117H527.492V490.117ZM528.293 490.117V496.117H528.616L528.937 496.082L528.293 490.117ZM542.137 481.251L537.431 477.529L537.187 477.837L536.986 478.174L542.137 481.251ZM544.585 472.386L550.535 471.611L550.494 471.298L550.42 470.991L544.585 472.386ZM538.887 465.604L541.294 460.108L541.284 460.104L538.887 465.604ZM525.533 468.619L529.767 472.87L529.923 472.715L530.067 472.549L525.533 468.619ZM523.174 471.367L523.398 477.363L526.305 477.254L528.02 474.906L523.174 471.367ZM481.821 458.689L485.371 453.853L485.351 453.837L485.33 453.822L481.821 458.689ZM461.568 436.482L455.764 434.962L455.131 437.378L456.399 439.529L461.568 436.482ZM475.901 395.081L474.56 389.233L471.609 389.909L470.4 392.684L475.901 395.081ZM517.875 379.611L520.652 384.93L520.734 384.887L520.814 384.842L517.875 379.611ZM519.477 375.932L525.302 374.492L525.297 374.473L525.292 374.453L519.477 375.932ZM492.369 277.972L497.924 275.704L497.916 275.684L497.908 275.664L492.369 277.972ZM463.571 249.737L465.777 244.157L464.714 243.737H463.571V249.737ZM463.259 249.737L461.134 255.348L462.161 255.737H463.259V249.737ZM436.552 245.836L436.902 251.826L436.942 251.823L436.983 251.82L436.552 245.836ZM405.392 258.159L400.886 254.196L400.874 254.21L400.861 254.225L405.392 258.159ZM397.068 298.363L391.092 298.898L391.092 298.907L397.068 298.363ZM420.57 400.666L424.953 404.764L427.284 402.271L426.332 398.993L420.57 400.666ZM418.167 403.237L412.795 405.909L416.645 413.65L422.549 407.334L418.167 403.237ZM405.659 373.983H399.659V375.033L400.015 376.021L405.659 373.983ZM405.659 373.673H411.659V372.613L411.296 371.618L405.659 373.673ZM400.228 357.671L397.554 352.3L392.98 354.577L394.5 359.456L400.228 357.671ZM402.587 355.987L406.787 360.272L406.929 360.133L407.061 359.985L402.587 355.987ZM405.036 347.476L410.95 346.465L410.947 346.446L410.944 346.428L405.036 347.476ZM394.976 338.035L393.778 343.914L394.031 343.965L394.286 343.995L394.976 338.035ZM390.525 337.591L384.689 338.986L385.798 343.627L390.569 343.591L390.525 337.591ZM385.45 316.359L379.611 317.739L379.613 317.746L379.615 317.754L385.45 316.359ZM347.081 313.788L346.959 319.787L347.02 319.788H347.081V313.788ZM344.31 315.173L339.46 311.642L339.452 311.653L344.31 315.173ZM343.876 318.221L349.621 316.491L349.578 316.348L349.528 316.207L343.876 318.221ZM435.085 423.186V429.186H435.632L436.17 429.087L435.085 423.186ZM421.731 409.046L417.356 404.94L414.338 408.157L416.507 411.997L421.731 409.046ZM426.182 404.303L425.418 398.352L423.281 398.627L421.807 400.197L426.182 404.303ZM445.011 401.422L451.011 401.354L450.93 394.296L443.978 395.512L445.011 401.422ZM446.614 415.917L451.474 419.435L453.037 417.276L452.483 414.67L446.614 415.917ZM451.643 400.181L450.516 394.288L445.643 395.22V400.181H451.643ZM458.365 398.896L463.608 401.813L469.852 390.59L457.238 393.002L458.365 398.896ZM452.178 408.869L446.234 409.691L448.345 424.948L457.111 412.284L452.178 408.869ZM451.643 400.358L457.643 400.429L457.643 400.393V400.358H451.643ZM457.119 427.619L451.582 429.932L458.12 445.579L462.878 429.302L457.119 427.619ZM453.825 417.867L449.125 414.137L447.263 416.484L448.019 419.383L453.825 417.867ZM466.822 397.211V391.211H463.071L461.428 394.585L466.822 397.211ZM467.802 397.211L473.349 399.497L476.763 391.211H467.802V397.211ZM410.649 262.326L406.109 258.404L405.966 258.569L405.835 258.744L410.649 262.326ZM437.045 252.308V246.308H436.875L436.706 246.318L437.045 252.308ZM441.051 252.308V258.308H441.083L441.115 258.308L441.051 252.308ZM459.345 255.278L465.332 254.878L465.066 250.903L461.3 249.605L459.345 255.278ZM442.609 301.865L437.952 298.082L437.942 298.095L437.931 298.108L442.609 301.865ZM437.846 306.032V312.032H438.187L438.525 311.994L437.846 306.032ZM436.511 305.367L441.334 301.799L441.079 301.455L440.779 301.15L436.511 305.367ZM432.994 287.637L438.991 287.821L439.008 287.285L438.929 286.755L432.994 287.637ZM429.856 284.8L430.148 278.807L430.146 278.807L429.856 284.8ZM426.451 287.327L420.624 285.895L420.506 286.375L420.468 286.868L426.451 287.327ZM420.842 301.201V295.201H420.676L420.51 295.21L420.842 301.201ZM419.818 300.713L414.527 303.543L414.722 303.907L414.966 304.242L419.818 300.713ZM417.281 287.947L423.25 288.55L423.273 288.327L423.279 288.102L417.281 287.947ZM414.388 284.489L415.314 278.561L415.198 278.543L415.081 278.53L414.388 284.489ZM410.693 287.06L404.858 285.663L404.827 285.792L404.802 285.922L410.693 287.06ZM407.043 295.128L402.236 298.719L406.972 305.059L411.798 298.787L407.043 295.128ZM403.482 285.775L397.489 286.061L397.494 286.173L397.504 286.285L403.482 285.775ZM404.195 301.2L406.772 295.781L396.918 291.095L398.239 301.926L404.195 301.2ZM406.598 301.731L406.678 307.731L406.707 307.731L406.737 307.73L406.598 301.731ZM411.673 299.471L417.47 297.926L414.68 287.452L407.286 295.378L411.673 299.471ZM414.833 305.322L410.369 309.33L410.395 309.36L410.422 309.389L414.833 305.322ZM420.664 307.848L420.694 313.848L420.743 313.848L420.792 313.847L420.664 307.848ZM428.187 303.416L433.959 301.779L430.102 288.173L422.999 300.402L428.187 303.416ZM431.614 309.666L427.126 313.648L427.182 313.71L427.239 313.772L431.614 309.666ZM437.757 312.325L437.728 318.325L438.121 318.327L438.511 318.278L437.757 312.325ZM446.971 306.607L442.191 302.981L442.078 303.13L441.974 303.286L446.971 306.607ZM465.978 257.847L468.865 252.588L460.862 248.194L460.004 257.284L465.978 257.847ZM486.098 280.01L491.665 277.774L491.64 277.712L491.614 277.651L486.098 280.01ZM512.36 375.045L515.182 380.34L519.315 378.137L518.182 373.593L512.36 375.045ZM426.896 397.652L421.134 399.325L422.579 404.299L427.71 403.596L426.896 397.652ZM400.456 378.859L406.091 376.8L404.503 372.453L399.895 372.885L400.456 378.859ZM413.364 408.203L417.476 412.573L420.779 409.465L418.69 405.439L413.364 408.203ZM387.947 423.629L386.915 429.539L386.922 429.54L387.947 423.629ZM368.318 381.873L367.757 375.899L360.926 376.54L362.472 383.225L368.318 381.873ZM384.031 338.566L385.913 344.263L391.744 342.336L389.683 336.552L384.031 338.566ZM378.377 342.998L373.282 339.83L373.272 339.846L373.263 339.862L378.377 342.998ZM378.155 351.863L372.893 354.747L373.099 355.123L373.357 355.466L378.155 351.863ZM393.823 358.911L399.545 357.106L398.107 352.549L393.344 352.93L393.823 358.911ZM362.177 344.242L367.997 342.784L367.102 339.213L363.513 338.393L362.177 344.242ZM367.517 365.56L361.696 367.018L363.292 373.387L369.491 371.226L367.517 365.56ZM368.407 365.25L370.382 370.916L371.023 370.692L371.599 370.331L368.407 365.25ZM373.036 357.848L367.078 357.142L367.073 357.179L367.069 357.216L373.036 357.848ZM366.092 345.924L363.202 351.182L363.472 351.33L363.756 351.45L366.092 345.924ZM358.48 343.397L359.319 337.456L357.144 349.247L358.48 343.397ZM351.712 344.242L349.857 338.536C347.961 339.152 346.167 340.183 344.658 341.605L348.774 345.971L352.89 350.336C353.051 350.185 353.281 350.041 353.567 349.948L351.712 344.242ZM348.774 345.971L344.818 341.46C340.753 345.025 338.933 350.531 340.113 355.83L345.97 354.525L351.826 353.221C351.605 352.225 351.944 351.171 352.73 350.482L348.774 345.971ZM345.97 354.525L340.32 356.545C342.991 364.016 349.299 369.62 357.038 371.409L358.389 365.563L359.74 359.717C355.972 358.846 352.911 356.117 351.62 352.506L345.97 354.525ZM358.389 365.563L352.461 366.487C353.544 373.434 356.308 389.18 361.105 403.683C363.496 410.909 366.491 418.143 370.221 423.883C373.827 429.435 378.887 434.767 385.807 435.968L386.832 430.056L387.858 424.144C385.965 423.816 383.329 422.034 380.284 417.346C377.361 412.848 374.749 406.717 372.498 399.914C368.015 386.359 365.37 371.387 364.317 364.638L358.389 365.563ZM386.832 430.056L386.428 436.042C387.354 436.105 388.269 436.105 389.195 436.042L388.791 430.056L388.387 424.07C387.999 424.096 387.624 424.096 387.237 424.07L386.832 430.056ZM388.791 430.056V436.056C394.898 436.056 401.094 433.036 406.225 429.751C411.551 426.342 416.68 422.015 420.837 418.218L416.789 413.788L412.742 409.359C408.797 412.964 404.245 416.77 399.756 419.645C395.072 422.643 391.32 424.056 388.791 424.056V430.056ZM416.789 413.788L411.68 416.934C414.706 421.848 418.05 426.39 421.682 429.771C425.238 433.082 429.772 435.923 435.084 435.923V429.923V423.923C434.165 423.923 432.444 423.395 429.858 420.988C427.347 418.65 424.659 415.126 421.898 410.642L416.789 413.788ZM435.084 429.923L435.617 435.899C442.173 435.315 448.287 432.35 452.8 427.571L448.438 423.451L444.075 419.332C441.577 421.977 438.188 423.622 434.551 423.947L435.084 429.923ZM448.438 423.451L442.71 425.237C444.329 430.433 446.451 435.445 449.036 440.224L454.313 437.37L459.591 434.515C457.369 430.407 455.551 426.111 454.166 421.666L448.438 423.451ZM454.313 437.37L448.509 435.851C443.09 456.563 439.944 477.803 439.104 499.191L445.099 499.426L451.095 499.662C451.901 479.137 454.92 458.757 460.118 438.888L454.313 437.37ZM445.099 499.426L445.238 493.428C438.993 493.284 433.058 496.152 429.308 501.14L434.105 504.745L438.901 508.35C440.315 506.468 442.57 505.369 444.961 505.425L445.099 499.426ZM434.105 504.745L428.912 501.739C426.244 506.347 426.244 512.009 428.912 516.617L434.105 513.61L439.297 510.604C438.782 509.715 438.783 508.64 439.297 507.752L434.105 504.745ZM434.105 513.61L429.32 517.231C434.231 523.722 442.13 527.26 450.263 526.594L449.773 520.614L449.283 514.634C445.242 514.965 441.323 513.206 438.889 509.99L434.105 513.61ZM449.773 520.614V526.614H450.485V520.614V514.614H449.773V520.614ZM450.485 520.614L450.353 526.613C454.922 526.713 459.39 525.043 462.764 521.903L458.676 517.511L454.587 513.119C453.532 514.102 452.102 514.648 450.617 514.616L450.485 520.614ZM458.676 517.511L463.068 521.599C466.468 517.946 467.951 512.905 467.075 507.992L461.168 509.045L455.261 510.098C455.476 511.302 455.112 512.533 454.283 513.423L458.676 517.511ZM461.168 509.045L467.082 508.034C465.851 500.829 460.21 495.212 453.031 493.959L451.998 499.869L450.966 505.78C453.18 506.166 454.883 507.886 455.254 510.056L461.168 509.045ZM451.998 499.869L457.995 500.076C458.616 482.101 461.021 464.234 465.18 446.735L459.343 445.348L453.506 443.96C449.163 462.234 446.65 480.892 446.002 499.662L451.998 499.869ZM459.343 445.348L454.457 448.83C459.926 456.504 466.623 463.219 474.256 468.738L477.771 463.876L481.287 459.013C474.698 454.249 468.931 448.463 464.229 441.865L459.343 445.348ZM477.771 463.876L474.233 468.721C487.483 478.398 503.465 483.654 519.89 483.75L519.925 477.75L519.96 471.75C506.049 471.669 492.52 467.217 481.31 459.03L477.771 463.876ZM519.925 477.75L514.183 476.009C513.07 479.681 513.257 483.643 514.746 487.202L520.281 484.886L525.816 482.57C525.414 481.608 525.356 480.517 525.667 479.49L519.925 477.75ZM520.281 484.886L514.799 487.324C516.964 492.194 521.569 495.529 526.866 496.084L527.492 490.117L528.118 484.149C527.072 484.04 526.18 483.385 525.764 482.448L520.281 484.886ZM527.492 490.117V496.117H528.293V490.117V484.117H527.492V490.117ZM528.293 490.117L528.937 496.082C536.562 495.26 543.361 490.899 547.287 484.329L542.137 481.251L536.986 478.174C534.992 481.511 531.531 483.733 527.65 484.151L528.293 490.117ZM542.137 481.251L546.843 484.974C549.832 481.194 551.155 476.368 550.535 471.611L544.585 472.386L538.635 473.162C538.838 474.721 538.403 476.3 537.431 477.529L542.137 481.251ZM544.585 472.386L550.42 470.991C549.254 466.111 545.852 462.104 541.294 460.108L538.887 465.604L536.481 471.101C537.643 471.609 538.469 472.611 538.749 473.782L544.585 472.386ZM538.887 465.604L541.284 460.104C534.259 457.043 526.03 458.886 521 464.688L525.533 468.619L530.067 472.549C531.647 470.727 534.257 470.132 536.491 471.105L538.887 465.604ZM525.533 468.619L521.3 464.367C520.222 465.44 519.228 466.598 518.329 467.828L523.174 471.367L528.02 474.906C528.545 474.186 529.131 473.504 529.767 472.87L525.533 468.619ZM523.174 471.367L522.95 465.371C509.476 465.875 496.219 461.814 485.371 453.853L481.821 458.689L478.271 463.526C491.308 473.096 507.228 477.967 523.398 477.363L523.174 471.367ZM481.821 458.689L485.33 453.822C477.78 448.38 471.457 441.442 466.737 433.435L461.568 436.482L456.399 439.529C461.962 448.965 469.415 457.142 478.312 463.557L481.821 458.689ZM461.568 436.482L467.372 438.002C471 424.148 475.684 410.6 481.401 397.477L475.901 395.081L470.4 392.684C464.433 406.38 459.547 420.514 455.764 434.962L461.568 436.482ZM475.901 395.081L477.241 400.929C492.339 397.468 506.932 392.094 520.652 384.93L517.875 379.611L515.098 374.293C502.29 380.981 488.663 386 474.56 389.233L475.901 395.081ZM517.875 379.611L520.814 384.842C524.447 382.802 526.312 378.577 525.302 374.492L519.477 375.932L513.653 377.372C513.355 376.169 513.907 374.958 514.936 374.38L517.875 379.611ZM519.477 375.932L525.292 374.453C524.875 372.811 519.734 352.313 513.876 330.218C508.082 308.361 501.402 284.222 497.924 275.704L492.369 277.972L486.815 280.24C489.924 287.856 496.376 311.035 502.277 333.293C508.115 355.313 513.235 375.729 513.663 377.411L519.477 375.932ZM492.369 277.972L497.908 275.664C491.907 261.263 480.307 249.903 465.777 244.157L463.571 249.737L461.364 255.316C472.894 259.876 482.082 268.884 486.831 280.28L492.369 277.972ZM463.571 249.737V243.737H463.259V249.737V255.737H463.571V249.737ZM463.259 249.737L465.385 244.126C456.056 240.592 446.07 239.135 436.121 239.851L436.552 245.836L436.983 251.82C445.195 251.229 453.437 252.432 461.134 255.348L463.259 249.737ZM436.552 245.836L436.202 239.846C420.915 240.739 408.938 245.042 400.886 254.196L405.392 258.159L409.897 262.121C415.024 256.292 423.345 252.617 436.902 251.826L436.552 245.836ZM405.392 258.159L400.861 254.225C391.862 264.59 389.35 279.455 391.092 298.898L397.068 298.363L403.044 297.827C401.403 279.504 404.143 268.748 409.922 262.092L405.392 258.159ZM397.068 298.363L391.092 298.907C393.917 329.938 411.582 391.225 414.808 402.338L420.57 400.666L426.332 398.993C422.971 387.412 405.738 327.428 403.043 297.819L397.068 298.363ZM420.57 400.666L416.188 396.568L413.784 399.139L418.167 403.237L422.549 407.334L424.953 404.764L420.57 400.666ZM418.167 403.237L423.539 400.565C418.912 391.263 414.829 381.712 411.302 371.945L405.659 373.983L400.015 376.021C403.699 386.22 407.962 396.194 412.795 405.909L418.167 403.237ZM405.659 373.983H411.659V373.673H405.659H399.659V373.983H405.659ZM405.659 373.673L411.296 371.618C409.321 366.198 407.527 360.926 405.957 355.886L400.228 357.671L394.5 359.456C396.134 364.7 397.99 370.154 400.021 375.727L405.659 373.673ZM400.228 357.671L402.903 363.042C404.349 362.322 405.662 361.374 406.787 360.272L402.587 355.987L398.388 351.701C398.133 351.951 397.843 352.156 397.554 352.3L400.228 357.671ZM402.587 355.987L407.061 359.985C410.349 356.306 411.781 351.326 410.95 346.465L405.036 347.476L399.122 348.488C399.336 349.743 398.966 351.035 398.114 351.989L402.587 355.987ZM405.036 347.476L410.944 346.428C409.587 338.78 403.355 332.964 395.666 332.074L394.976 338.035L394.286 343.995C396.746 344.28 398.704 346.133 399.128 348.524L405.036 347.476ZM394.976 338.035L396.174 332.155C394.325 331.779 392.417 331.577 390.48 331.592L390.525 337.591L390.569 343.591C391.615 343.583 392.689 343.692 393.778 343.914L394.976 338.035ZM390.525 337.591L396.36 336.197L391.286 314.965L385.45 316.359L379.615 317.754L384.689 338.986L390.525 337.591ZM385.45 316.359L391.29 314.979C390.293 310.762 386.528 307.788 382.201 307.788V313.788V319.788C380.968 319.788 379.895 318.942 379.611 317.739L385.45 316.359ZM382.201 313.788V307.788H347.081V313.788V319.788H382.201V313.788ZM347.081 313.788L347.203 307.79C344.118 307.727 341.24 309.197 339.46 311.642L344.31 315.173L349.161 318.705C348.672 319.377 347.863 319.805 346.959 319.787L347.081 313.788ZM344.31 315.173L339.452 311.653C337.658 314.129 337.193 317.34 338.224 320.235L343.876 318.221L349.528 316.207C349.825 317.04 349.694 317.969 349.169 318.694L344.31 315.173ZM343.876 318.221L338.131 319.951L345.967 345.972L351.712 344.242L357.457 342.512L349.621 316.491L343.876 318.221ZM435.085 423.186V417.186C435.905 417.186 435.312 417.565 433.204 415.259C431.384 413.269 429.261 410.177 426.955 406.095L421.731 409.046L416.507 411.997C419.009 416.426 421.648 420.404 424.347 423.356C426.757 425.992 430.436 429.186 435.085 429.186V423.186ZM421.731 409.046L426.106 413.152L430.557 408.409L426.182 404.303L421.807 400.197L417.356 404.94L421.731 409.046ZM426.182 404.303L426.947 410.254C429.766 409.892 436.804 408.948 446.045 407.332L445.011 401.422L443.978 395.512C434.968 397.087 428.118 398.005 425.418 398.352L426.182 404.303ZM445.011 401.422L439.012 401.491C439.072 406.759 439.649 412.008 440.745 417.164L446.614 415.917L452.483 414.67C451.553 410.295 451.062 405.837 451.011 401.354L445.011 401.422ZM446.614 415.917L441.754 412.398C439.901 414.957 437.126 416.71 434 417.285L435.085 423.186L436.17 429.087C442.325 427.955 447.807 424.5 451.474 419.435L446.614 415.917ZM451.643 400.181L452.771 406.074L459.492 404.789L458.365 398.896L457.238 393.002L450.516 394.288L451.643 400.181ZM458.365 398.896L453.122 395.978C451.381 399.107 449.391 402.352 447.244 405.454L452.178 408.869L457.111 412.284C459.504 408.826 461.699 405.244 463.608 401.813L458.365 398.896ZM452.178 408.869L458.121 408.046C457.773 405.53 457.613 402.98 457.643 400.429L451.643 400.358L445.644 400.288C445.607 403.432 445.804 406.579 446.234 409.691L452.178 408.869ZM451.643 400.358H457.643V400.181H451.643H445.643V400.358H451.643ZM457.119 427.619L462.655 425.306C461.438 422.394 460.427 419.402 459.63 416.352L453.825 417.867L448.019 419.383C448.959 422.981 450.151 426.505 451.582 429.932L457.119 427.619ZM453.825 417.867L458.525 421.597C463.872 414.858 468.456 407.562 472.217 399.838L466.822 397.211L461.428 394.585C458.045 401.532 453.926 408.088 449.125 414.137L453.825 417.867ZM466.822 397.211V403.211H467.802V397.211V391.211H466.822V397.211ZM467.802 397.211L462.254 394.926C458.079 405.06 454.436 415.41 451.36 425.936L457.119 427.619L462.878 429.302C465.833 419.192 469.334 409.243 473.349 399.497L467.802 397.211ZM410.649 262.326L415.189 266.248C418.858 262.002 425.543 258.968 437.383 258.299L437.045 252.308L436.706 246.318C423.442 247.067 412.856 250.594 406.109 258.404L410.649 262.326ZM437.045 252.308V258.308H441.051V252.308V246.308H437.045V252.308ZM441.051 252.308L441.115 258.308C446.645 258.249 452.149 259.145 457.391 260.951L459.345 255.278L461.3 249.605C454.768 247.355 447.898 246.235 440.987 246.309L441.051 252.308ZM459.345 255.278L453.359 255.679C453.72 261.077 452.041 269.112 448.941 277.464C445.872 285.732 441.747 293.411 437.952 298.082L442.609 301.865L447.266 305.649C452.151 299.636 456.839 290.67 460.191 281.64C463.512 272.694 465.861 262.777 465.332 254.878L459.345 255.278ZM442.609 301.865L437.931 298.108C436.581 299.788 435.805 300.378 435.627 300.5C435.547 300.555 435.637 300.481 435.898 300.376C436.029 300.324 436.202 300.263 436.416 300.208C436.522 300.181 436.638 300.154 436.764 300.131C436.827 300.119 436.892 300.108 436.959 300.098C436.992 300.093 437.026 300.088 437.061 300.084C437.078 300.081 437.096 300.079 437.113 300.077C437.122 300.076 437.131 300.075 437.14 300.074C437.144 300.073 437.151 300.073 437.153 300.072C437.16 300.072 437.166 300.071 437.846 306.032C438.525 311.994 438.532 311.993 438.539 311.992C438.541 311.992 438.548 311.991 438.552 311.99C438.561 311.989 438.57 311.988 438.579 311.987C438.597 311.985 438.615 311.983 438.633 311.98C438.669 311.976 438.706 311.97 438.742 311.965C438.815 311.954 438.89 311.941 438.964 311.927C439.114 311.899 439.267 311.866 439.423 311.825C439.734 311.745 440.053 311.64 440.381 311.508C441.034 311.245 441.714 310.877 442.424 310.389C443.826 309.426 445.432 307.931 447.286 305.623L442.609 301.865ZM437.846 306.032V300.032C439.159 300.032 440.475 300.638 441.334 301.799L436.511 305.367L431.687 308.936C433.169 310.939 435.487 312.032 437.846 312.032V306.032ZM436.511 305.367L440.779 301.15C441.021 301.395 440.812 301.289 440.45 300.261C440.131 299.355 439.831 298.131 439.585 296.66C439.093 293.716 438.913 290.365 438.991 287.821L432.994 287.637L426.997 287.453C426.897 290.716 427.117 294.856 427.749 298.638C428.066 300.53 428.508 302.478 429.131 304.247C429.711 305.894 430.643 307.965 432.242 309.584L436.511 305.367ZM432.994 287.637L438.929 286.755C438.273 282.338 434.586 279.023 430.148 278.807L429.856 284.8L429.564 290.793C428.308 290.732 427.248 289.789 427.059 288.518L432.994 287.637ZM429.856 284.8L430.146 278.807C425.691 278.591 421.691 281.552 420.624 285.895L426.451 287.327L432.277 288.758C431.967 290.021 430.815 290.853 429.566 290.793L429.856 284.8ZM426.451 287.327L420.468 286.868C420.282 289.301 419.689 292.23 418.904 294.403C418.501 295.519 418.165 296.103 418.028 296.288C417.721 296.705 418.601 295.201 420.842 295.201V301.201V307.201C424.507 307.201 426.745 304.687 427.687 303.41C428.799 301.902 429.604 300.105 430.191 298.479C431.387 295.166 432.174 291.159 432.433 287.785L426.451 287.327ZM420.842 301.201L420.51 295.21C422.169 295.118 423.721 295.878 424.671 297.184L419.818 300.713L414.966 304.242C416.382 306.19 418.714 307.327 421.173 307.191L420.842 301.201ZM419.818 300.713L425.109 297.883C423.574 295.013 422.926 291.763 423.25 288.55L417.281 287.947L411.311 287.344C410.745 292.952 411.878 298.589 414.527 303.543L419.818 300.713ZM417.281 287.947L423.279 288.102C423.402 283.349 419.974 279.29 415.314 278.561L414.388 284.489L413.461 290.417C412.207 290.221 411.249 289.11 411.283 287.792L417.281 287.947ZM414.388 284.489L415.081 278.53C410.374 277.982 405.972 281.012 404.858 285.663L410.693 287.06L416.528 288.458C416.215 289.762 414.973 290.598 413.694 290.449L414.388 284.489ZM410.693 287.06L404.802 285.922C404.415 287.924 403.554 289.823 402.288 291.469L407.043 295.128L411.798 298.787C414.182 295.689 415.836 292.07 416.584 288.199L410.693 287.06ZM407.043 295.128L411.85 291.537C410.481 289.704 409.654 287.534 409.46 285.265L403.482 285.775L397.504 286.285C397.889 290.797 399.533 295.099 402.236 298.719L407.043 295.128ZM403.482 285.775L409.475 285.489C409.141 278.482 411.258 271.558 415.463 265.908L410.649 262.326L405.835 258.744C399.98 266.613 397.022 276.268 397.489 286.061L403.482 285.775ZM404.195 301.2L401.618 306.618C403.161 307.352 404.89 307.755 406.678 307.731L406.598 301.731L406.519 295.732C406.637 295.73 406.72 295.756 406.772 295.781L404.195 301.2ZM406.598 301.731L406.737 307.73C410.246 307.649 413.624 306.175 416.06 303.564L411.673 299.471L407.286 295.378C407.095 295.582 406.801 295.725 406.46 295.733L406.598 301.731ZM411.673 299.471L405.875 301.015C406.695 304.093 408.227 306.946 410.369 309.33L414.833 305.322L419.298 301.313C418.434 300.352 417.808 299.192 417.47 297.926L411.673 299.471ZM414.833 305.322L410.422 309.389C413.082 312.273 416.814 313.868 420.694 313.848L420.664 307.848L420.634 301.848C420.085 301.851 419.589 301.629 419.244 301.254L414.833 305.322ZM420.664 307.848L420.792 313.847C426 313.736 430.766 310.921 433.375 306.429L428.187 303.416L422.999 300.402C422.492 301.274 421.561 301.828 420.536 301.85L420.664 307.848ZM428.187 303.416L422.414 305.052C423.319 308.243 424.929 311.171 427.126 313.648L431.614 309.666L436.103 305.684C435.095 304.548 434.368 303.221 433.959 301.779L428.187 303.416ZM431.614 309.666L427.239 313.772C429.978 316.69 433.785 318.306 437.728 318.325L437.757 312.325L437.785 306.325C437.077 306.322 436.433 306.032 435.989 305.56L431.614 309.666ZM437.757 312.325L438.511 318.278C444.009 317.581 448.915 314.521 451.968 309.929L446.971 306.607L441.974 303.286C440.843 304.987 439.027 306.116 437.003 306.373L437.757 312.325ZM446.971 306.607L451.751 310.234C463.186 295.16 470.177 277.223 471.951 258.411L465.978 257.847L460.004 257.284C458.44 273.87 452.277 289.686 442.191 302.981L446.971 306.607ZM465.978 257.847L463.091 263.107C470.923 267.407 477.083 274.19 480.581 282.37L486.098 280.01L491.614 277.651C487.056 266.992 479.038 258.172 468.865 252.588L465.978 257.847ZM486.098 280.01L480.53 282.247C483.298 289.139 488.891 308.981 494.334 329.343C499.72 349.494 504.808 369.563 506.538 376.498L512.36 375.045L518.182 373.593C516.44 366.61 511.334 346.475 505.927 326.244C500.575 306.225 494.772 285.509 491.665 277.774L486.098 280.01ZM512.36 375.045L509.538 369.75C497.315 376.264 479.607 381.368 463.077 385.064C446.68 388.731 431.984 390.899 426.082 391.707L426.896 397.652L427.71 403.596C433.782 402.764 448.843 400.544 465.696 396.775C482.417 393.036 501.455 387.656 515.182 380.34L512.36 375.045ZM426.896 397.652L432.658 395.978C428.922 383.114 413.685 329.457 410.151 300.473L404.195 301.2L398.239 301.926C401.916 332.073 417.481 386.746 421.134 399.325L426.896 397.652ZM400.456 378.859L394.82 380.918C398.58 391.209 402.99 401.241 408.039 410.967L413.364 408.203L418.69 405.439C413.879 396.171 409.676 386.611 406.091 376.8L400.456 378.859ZM413.364 408.203L409.252 403.834C404.928 407.903 400.334 411.749 396.245 414.413C394.197 415.747 392.437 416.679 391.019 417.216C389.512 417.788 388.925 417.709 388.973 417.717L387.947 423.629L386.922 429.54C389.908 430.059 392.854 429.354 395.272 428.437C397.78 427.487 400.337 426.069 402.796 424.467C407.722 421.258 412.898 416.881 417.476 412.573L413.364 408.203ZM387.947 423.629L388.98 417.718C389.351 417.783 388.653 417.783 387.094 415.743C385.677 413.888 384.125 411.096 382.532 407.437C379.365 400.161 376.458 390.447 374.163 380.521L368.318 381.873L362.472 383.225C364.851 393.513 367.953 404.012 371.529 412.227C373.309 416.315 375.312 420.088 377.559 423.029C379.664 425.784 382.738 428.81 386.915 429.539L387.947 423.629ZM368.318 381.873L368.878 387.847L401.016 384.833L400.456 378.859L399.895 372.885L367.757 375.899L368.318 381.873ZM384.031 338.566L382.148 332.868C378.486 334.078 375.337 336.525 373.282 339.83L378.377 342.998L383.473 346.166C384.022 345.283 384.879 344.604 385.913 344.263L384.031 338.566ZM378.377 342.998L373.263 339.862C370.484 344.392 370.329 350.069 372.893 354.747L378.155 351.863L383.416 348.98C382.931 348.095 382.954 347.012 383.492 346.135L378.377 342.998ZM378.155 351.863L373.357 355.466C378.258 361.993 386.173 365.543 394.302 364.892L393.823 358.911L393.344 352.93C389.3 353.254 385.374 351.486 382.953 348.261L378.155 351.863ZM393.823 358.911L388.101 360.717C388.1 360.711 388.081 360.654 388.057 360.562C388.045 360.514 387.972 360.245 387.925 359.877C387.904 359.714 387.853 359.279 387.891 358.718C387.905 358.524 387.98 356.558 389.623 354.909C390.653 353.875 392.038 353.24 393.526 353.155C394.845 353.079 395.861 353.453 396.406 353.708C397.415 354.179 398.025 354.818 398.162 354.958C398.56 355.369 398.798 355.741 398.822 355.778C398.897 355.89 398.944 355.972 398.956 355.992C398.981 356.035 398.976 356.03 398.931 355.943C398.744 355.582 398.384 354.833 397.866 353.726C396.855 351.566 395.432 348.444 394.017 345.347C392.617 342.282 391.216 339.225 390.287 337.279C389.89 336.445 389.407 335.445 389.047 334.857C388.984 334.755 388.867 334.567 388.709 334.353C388.693 334.331 388.169 333.568 387.253 332.935C386.937 332.718 385.187 331.504 382.711 331.975C379.568 332.573 378.406 335.112 378.102 336.081C377.798 337.051 377.821 337.857 377.829 338.097C377.841 338.444 377.88 338.722 377.905 338.875C378.025 339.625 378.317 340.406 378.379 340.58L384.031 338.566L389.683 336.552C389.5 336.038 389.661 336.401 389.752 336.97C389.773 337.1 389.811 337.359 389.822 337.691C389.83 337.916 389.854 338.71 389.552 339.671C389.251 340.633 388.093 343.166 384.955 343.764C382.485 344.234 380.741 343.022 380.435 342.811C379.884 342.43 379.529 342.045 379.399 341.901C379.232 341.715 379.112 341.557 379.047 341.469C378.918 341.294 378.835 341.159 378.812 341.121C378.769 341.052 378.952 341.387 379.457 342.446C380.334 344.283 381.688 347.238 383.102 350.335C384.503 353.399 385.956 356.588 386.996 358.811C387.504 359.895 387.961 360.855 388.276 361.462C388.356 361.617 388.457 361.808 388.566 361.996C388.619 362.088 388.703 362.23 388.808 362.389C388.863 362.473 389.127 362.879 389.545 363.31C389.691 363.46 390.31 364.105 391.325 364.579C391.874 364.836 392.892 365.211 394.215 365.135C395.705 365.049 397.092 364.414 398.124 363.378C399.771 361.724 399.849 359.751 399.863 359.546C399.902 358.975 399.85 358.525 399.827 358.343C399.744 357.705 399.562 357.16 399.545 357.106L393.823 358.911ZM362.177 344.242L356.356 345.7L361.696 367.018L367.517 365.56L373.337 364.102L367.997 342.784L362.177 344.242ZM367.517 365.56L369.491 371.226L370.382 370.916L368.407 365.25L366.432 359.584L365.542 359.895L367.517 365.56ZM368.407 365.25L371.599 370.331C375.736 367.731 378.484 363.373 379.003 358.479L373.036 357.848L367.069 357.216C366.942 358.417 366.263 359.511 365.215 360.17L368.407 365.25ZM373.036 357.848L378.994 358.553C379.91 350.817 375.598 343.428 368.428 340.397L366.092 345.924L363.756 351.45C366.022 352.409 367.364 354.727 367.078 357.142L373.036 357.848ZM366.092 345.924L368.982 340.666C365.978 339.015 362.699 337.933 359.319 337.456L358.48 343.397L357.642 349.338C359.603 349.615 361.488 350.24 363.202 351.182L366.092 345.924ZM358.48 343.397L357.144 349.247L360.84 350.091L362.177 344.242L363.513 338.393L359.817 337.548L358.48 343.397Z" fill="#1E1E1E" mask="url(#path-4-outside-1_2154_118)"/>
<path d="M351.098 346.705C350.028 347.054 349.036 347.632 348.218 348.406C345.84 350.501 344.781 353.73 345.469 356.828C347.41 362.282 352.003 366.384 357.643 367.693C359.737 381.176 368.246 428.17 385.526 431.18C386.169 431.224 386.802 431.224 387.445 431.18C395.91 431.18 406.95 422.453 414.892 415.166C420.564 424.417 426.717 431.049 432.826 431.049C437.822 430.602 442.48 428.333 445.916 424.679C447.389 429.424 449.32 434.005 451.676 438.38C446.472 458.354 443.451 478.839 442.643 499.468C438.411 499.37 434.396 501.323 431.865 504.705C430.306 507.41 430.306 510.726 431.865 513.432C435.465 518.209 441.258 520.817 447.225 520.326H447.923C450.89 520.391 453.781 519.301 455.952 517.271C458.024 515.035 458.93 511.948 458.395 508.937C457.61 504.323 454.01 500.712 449.406 499.905C450.028 481.818 452.439 463.841 456.606 446.233C461.592 453.258 467.7 459.411 474.671 464.472C486.66 473.265 501.125 478.043 515.993 478.13C515.295 480.443 515.415 482.93 516.343 485.155C517.608 488.013 520.302 489.977 523.411 490.304H524.197C529.836 489.693 534.865 486.453 537.767 481.577C539.709 479.112 540.571 475.959 540.167 472.85C539.458 469.872 537.385 467.407 534.582 466.174C530.044 464.189 524.731 465.389 521.491 469.141C520.651 469.981 519.877 470.887 519.179 471.847C504.648 472.392 490.348 467.996 478.641 459.367C470.58 453.531 463.827 446.091 458.787 437.506C462.42 423.576 467.111 409.951 472.837 396.751C487.15 393.456 500.981 388.34 513.984 381.522C515.26 380.802 515.904 379.319 515.555 377.9C514.726 374.628 495.439 297.35 488.981 281.468C483.712 268.771 473.524 258.746 460.751 253.673H460.445C452.1 250.499 443.166 249.19 434.264 249.833C420.127 250.662 410.178 254.589 403.719 261.964C396.475 270.342 393.901 282.952 395.559 301.541C398.264 331.389 415.369 391.078 418.598 402.248L416.242 404.779C411.606 395.42 407.515 385.809 403.981 375.982V375.676C402.017 370.266 400.228 364.986 398.657 359.924C399.508 359.499 400.294 358.932 400.97 358.266C402.999 355.986 403.883 352.899 403.37 349.888C402.497 344.947 398.483 341.172 393.508 340.594C392.069 340.3 390.607 340.147 389.145 340.158L384.171 319.257C383.822 317.773 382.502 316.726 380.986 316.726H346.558C345.489 316.704 344.475 317.217 343.842 318.089C343.22 318.951 343.056 320.075 343.416 321.089L351.098 346.705ZM432.826 424.418C429.074 424.418 424.448 418.876 419.736 410.498L424.099 405.829C426.805 405.48 433.612 404.564 442.557 402.993C442.612 407.793 443.135 412.571 444.128 417.262C441.422 421.014 437.375 423.578 432.826 424.418ZM449.058 401.771L455.647 400.506C453.858 403.735 451.808 407.095 449.582 410.323C449.2 407.553 449.026 404.749 449.058 401.946V401.771ZM454.426 428.781C453.127 425.661 452.048 422.454 451.197 419.181C456.171 412.887 460.436 406.069 463.938 398.848H464.898C460.884 408.633 457.382 418.624 454.426 428.781ZM408.872 266.066C413.978 260.132 422.443 256.903 434.748 256.205H438.675C444.773 256.139 450.838 257.132 456.609 259.129C457.481 272.219 448.711 294.472 440.202 304.989C437.06 308.916 435.533 309.091 435.533 309.091C435.02 309.091 434.529 308.851 434.224 308.436C431.562 305.731 430.602 296.699 430.777 290.982C430.548 289.433 429.26 288.266 427.7 288.19C426.13 288.113 424.733 289.161 424.362 290.677C423.926 296.393 421.657 304.334 418.864 304.334C418.472 304.356 418.09 304.171 417.861 303.854C415.81 300.004 414.937 295.629 415.373 291.288C415.417 289.597 414.206 288.146 412.537 287.884C410.857 287.688 409.308 288.768 408.916 290.415C408.359 293.306 407.127 296.022 405.338 298.356C403.341 295.673 402.131 292.488 401.847 289.149C401.454 280.881 403.942 272.72 408.872 266.066ZM402.545 304.334C403.276 304.683 404.084 304.868 404.902 304.857C406.789 304.813 408.589 304.017 409.876 302.632C410.443 304.77 411.501 306.744 412.974 308.392C414.447 309.995 416.519 310.89 418.69 310.879C421.745 310.813 424.537 309.155 426.064 306.515C426.708 308.795 427.853 310.89 429.424 312.668C430.984 314.337 433.166 315.275 435.446 315.286C439.133 314.817 442.427 312.755 444.478 309.657C455.027 295.694 461.474 279.081 463.11 261.657C471.935 266.523 478.884 274.202 482.833 283.475C488.593 297.874 505.174 363.327 508.578 377.028C483.139 390.642 436.536 397.667 424.799 399.281C421.177 386.758 406.08 333.438 402.545 304.334ZM398.88 380.782C402.48 390.676 406.702 400.319 411.534 409.668C402.807 417.915 392.378 425.857 386.619 424.853C379.157 423.544 371.957 403.647 367.376 383.749L398.88 380.782ZM382.779 341.117C380.477 341.88 378.514 343.419 377.237 345.48C375.612 348.142 375.525 351.469 377.019 354.207C380.608 359.007 386.412 361.625 392.379 361.145C393.338 364.2 380.859 335.706 382.779 341.117L357.733 345.873L366.59 367.69L367.463 367.385C370.005 365.781 371.685 363.098 372.001 360.098C372.59 355.102 369.819 350.324 365.194 348.36C362.882 347.084 360.351 346.244 357.733 345.873L382.779 341.117Z" fill="white"/>
<path d="M398.566 277.786L407.821 261.443L426.499 252.787L446.523 255.217L470.852 261.443L487.389 289.654L500.133 336.019L511.715 377.303L483.893 388.198L459.379 395.397L423.444 400.066L407.821 336.019L398.565 292.476L398.566 277.786Z" fill="white"/>
<path d="M447.99 325.615C448.309 328.09 444.778 330.582 440.105 331.184C435.432 331.785 431.385 330.266 431.067 327.792C430.749 325.318 434.279 322.825 438.952 322.224C443.626 321.623 447.672 323.141 447.99 325.615Z" fill="#FFB8B8"/>
<path d="M431.895 326.492C435.641 326.208 437.745 321.706 437.273 315.548C436.8 309.391 433.919 305.228 430.286 305.502C426.652 305.777 424.473 310.285 424.948 316.48C425.423 322.675 428.448 326.752 431.895 326.492Z" fill="#1E1E1E"/>
<ellipse cx="2.15422" cy="2.69711" rx="2.15422" ry="2.69711" transform="matrix(0.978507 0.206572 -0.204403 0.978812 425.572 307.831)" fill="#D9D9D9"/>
<ellipse cx="2.15422" cy="2.69711" rx="2.15422" ry="2.69711" transform="matrix(0.978507 0.206572 -0.204403 0.978812 429.249 313.581)" fill="#555555"/>
<path d="M404.267 330.383C408.013 330.1 410.117 325.598 409.645 319.44C409.173 313.282 406.291 309.119 402.658 309.394C399.024 309.669 396.845 314.176 397.32 320.372C397.795 326.567 400.82 330.644 404.267 330.383Z" fill="#1E1E1E"/>
<ellipse cx="2.15422" cy="2.69711" rx="2.15422" ry="2.69711" transform="matrix(0.978507 0.206572 -0.204403 0.978812 397.945 311.723)" fill="#D9D9D9"/>
<ellipse cx="2.15422" cy="2.69711" rx="2.15422" ry="2.69711" transform="matrix(0.978507 0.206572 -0.204403 0.978812 401.621 317.473)" fill="#555555"/>
<path d="M412.491 340.443C412.491 340.443 414.937 349.319 422.211 347.494C429.484 345.669 428.261 337.461 428.261 337.461" stroke="black" stroke-width="3.89114" stroke-linecap="round"/>
<path d="M399.49 327.964L401.49 336.464C401.49 336.464 403.709 335.233 404.49 333.964C405.271 332.695 405.49 329.964 405.49 329.964C405.49 329.964 403.621 330.272 402.49 329.964C401.132 329.593 399.49 327.964 399.49 327.964Z" fill="#FFB8B8"/>
<path d="M40.9573 51.6947C42.2509 52.3181 43.6855 51.1546 43.3428 49.7602L42.5975 46.7402C41.8998 44.5799 43.4494 42.1503 44.3328 40.2791C44.9562 38.9855 43.7928 37.5509 42.3983 37.8936L39.3776 38.6389C38.1517 38.9411 36.8549 38.8062 35.718 38.2573L32.917 36.9045C31.6234 36.2812 30.1888 37.4446 30.5316 38.839L31.2768 41.859C31.9746 44.0194 30.4261 46.4483 29.5426 48.3194C28.9182 49.6139 30.0816 51.0484 31.4771 50.7048L34.4967 49.9604C36.6572 49.2622 39.0865 50.811 40.9573 51.6947Z" fill="#4DAFFF"/>
<path d="M434.431 223.209C436.179 219.363 437.337 215.242 433.252 211.151C431.914 209.806 430.098 209.003 428.108 208.623C426.11 208.242 424.131 208.324 422.384 209.082C417.085 211.385 416.645 215.643 416.859 219.861C415.741 216.626 411.658 213.962 407.234 214.958C403.584 215.784 401.649 218.665 400.985 221.97C400.32 225.277 401.377 228.774 403.287 231.667C405.197 234.56 407.921 236.906 410.8 238.977C412.973 240.54 414.785 241.564 417.94 242.889L417.95 242.884C419.059 243.346 420.197 243.635 421.394 243.862C422.582 244.088 423.756 244.24 424.949 244.216L424.958 244.225C428.379 244.153 430.443 243.868 433.041 243.213C436.48 242.346 439.872 241.165 442.714 239.177C445.556 237.19 447.824 234.323 448.424 231.005C449.024 227.688 448.278 224.296 445.178 222.185C441.433 219.633 436.666 220.612 434.431 223.209Z" fill="#1E1E1E"/>
<path d="M299.104 202.206C300.094 203.009 301.57 202.297 301.558 201.023L301.532 198.263C301.37 196.255 303.204 194.475 304.349 193.039C305.151 192.05 304.439 190.574 303.165 190.585L300.406 190.611C299.286 190.622 298.195 190.241 297.324 189.534L295.182 187.794C294.193 186.993 292.717 187.704 292.728 188.977L292.754 191.737C292.915 193.745 291.082 195.525 289.937 196.961C289.135 197.95 289.846 199.426 291.12 199.416L293.88 199.389C295.888 199.228 297.669 201.061 299.104 202.206Z" fill="#FFBD49"/>
<path d="M298.813 156.837C299.803 157.64 301.279 156.928 301.268 155.654L301.241 152.894C301.08 150.886 302.913 149.105 304.058 147.67C304.86 146.681 304.149 145.204 302.875 145.215L300.115 145.242C298.995 145.253 297.904 144.872 297.034 144.165L294.892 142.425C293.902 141.624 292.426 142.335 292.437 143.608L292.463 146.368C292.625 148.376 290.791 150.156 289.646 151.591C288.844 152.581 289.556 154.057 290.83 154.046L293.589 154.02C295.598 153.859 297.378 155.692 298.813 156.837Z" fill="#44C67F"/>
<path d="M85.7359 128.347C46.6308 137.328 32.0433 81.5419 70.4933 70.1951C109.565 61.2219 124.186 117 85.7359 128.347Z" fill="#44C67F"/>
<path d="M92.0557 233.493C93.0457 234.296 94.5218 233.584 94.5103 232.31L94.4839 229.55C94.3224 227.542 96.156 225.762 97.3008 224.327C98.103 223.337 97.3915 221.861 96.1175 221.872L93.3578 221.898C92.238 221.909 91.1468 221.528 90.2766 220.821L88.1343 219.081C87.1451 218.28 85.669 218.991 85.6797 220.265L85.7061 223.024C85.8676 225.032 84.034 226.813 82.8892 228.248C82.087 229.237 82.7985 230.714 84.0724 230.703L86.8322 230.676C88.8402 230.515 90.6208 232.348 92.0557 233.493Z" fill="#44C67F"/>
<path d="M160.843 146.31C154.941 145.693 155.572 137.185 161.497 137.44C167.396 138.057 166.768 146.566 160.843 146.31Z" fill="#FFCF7B"/>
<path d="M292.462 97.5389C286.56 96.9214 287.191 88.4132 293.117 88.669C299.015 89.286 298.387 97.7944 292.462 97.5389Z" fill="#FFCF7B"/>
<path d="M95.4644 103.678C93.0181 103.707 91.0105 101.628 90.9803 99.0364C90.9502 96.4444 92.909 94.3202 95.3553 94.2917C97.8016 94.2633 99.8091 96.3414 99.8392 98.9334C99.8694 101.525 97.9107 103.65 95.4644 103.678Z" fill="white"/>
<path d="M78.8187 104.002C76.3024 104.031 74.2374 101.894 74.2064 99.2274C74.1754 96.5612 76.1902 94.3762 78.7065 94.3469C81.2228 94.3177 83.2878 96.4553 83.3188 99.1215C83.3498 101.788 81.3351 103.973 78.8187 104.002Z" fill="white"/>
<path d="M62.3426 104.895C59.7679 104.925 57.655 102.738 57.6233 100.01C57.5915 97.2818 59.653 95.046 62.2277 95.0161C64.8024 94.9862 66.9154 97.1734 66.9471 99.9014C66.9788 102.629 64.9173 104.865 62.3426 104.895Z" fill="white"/>
<path d="M93.1682 191.059C78.5475 189.627 79.9642 168.551 94.6451 169.088C109.266 170.521 107.841 191.596 93.1682 191.059Z" fill="#FFBD49"/>
<path d="M249.324 219.638C234.704 218.205 236.12 197.129 250.801 197.666C265.422 199.099 263.997 220.174 249.324 219.638Z" fill="#FFBD49"/>
<path d="M143.074 75.1454C128.453 73.7127 129.869 52.6371 144.55 53.174C159.171 54.6067 157.746 75.6818 143.074 75.1454Z" fill="#FFBD49"/>
<path d="M242.97 264.781C243.96 265.584 245.436 264.872 245.425 263.598L245.398 260.838C245.237 258.83 247.071 257.05 248.215 255.615C249.018 254.625 248.306 253.149 247.032 253.16L244.272 253.186C243.153 253.197 242.061 252.816 241.191 252.109L239.049 250.369C238.06 249.568 236.584 250.28 236.594 251.553L236.621 254.312C236.782 256.32 234.949 258.101 233.804 259.536C233.002 260.526 233.713 262.002 234.987 261.991L237.747 261.964C239.755 261.804 241.535 263.636 242.97 264.781Z" fill="#4DAFFF"/>
<path d="M232.246 145.721C233.236 146.524 234.712 145.813 234.7 144.538L234.674 141.779C234.512 139.771 236.346 137.99 237.491 136.555C238.293 135.565 237.581 134.089 236.307 134.1L233.548 134.127C232.428 134.137 231.337 133.757 230.467 133.05L228.324 131.31C227.335 130.508 225.859 131.22 225.87 132.493L225.896 135.253C226.058 137.26 224.224 139.041 223.079 140.476C222.277 141.466 222.988 142.942 224.262 142.931L227.022 142.904C229.03 142.744 230.811 144.576 232.246 145.721Z" fill="#4DAFFF"/>
<path d="M222.609 50.3256C230.266 48.6405 238.743 52.7724 242.399 59.9911L242.738 60.6594L243.178 60.0528C247.926 53.5009 256.947 50.7597 264.242 53.632C271.539 56.5057 276.556 64.7752 275.925 72.9634C275.562 77.7001 273.51 82.197 270.735 86.0391C267.959 89.8831 264.486 93.1221 260.93 96.2719C257.01 99.7442 253 103.105 248.778 106.143L247.93 106.747C245.521 108.446 242.973 110 240.263 110.031L240 110.029C239.555 110.017 239.155 110.029 238.819 110.003C238.486 109.977 238.092 109.902 237.652 109.842L237.651 109.843C234.866 109.47 232.516 107.474 230.337 105.35C226.86 101.964 223.619 98.3187 220.489 94.5683L219.154 92.955C216.139 89.2829 213.221 85.5371 211.087 81.3036C208.953 77.0723 207.635 72.3063 208.025 67.5726C208.694 59.3869 214.952 52.0133 222.61 50.3265L222.609 50.3256Z" fill="#FF5310" stroke="#FF0000" stroke-width="0.91509"/>
<path d="M226.469 87.5637C224.433 87.3836 222.928 85.587 223.108 83.5507C223.288 81.5144 225.085 80.0096 227.121 80.1897C229.157 80.3697 230.662 82.1664 230.482 84.2026C230.302 86.2389 228.505 87.7437 226.469 87.5637Z" fill="#FFCFCF"/>
<path d="M258.056 89.7844C256.02 89.6043 254.515 87.8077 254.695 85.7714C254.875 83.7351 256.672 82.2303 258.708 82.4104C260.744 82.5904 262.249 84.3871 262.069 86.4233C261.889 88.4596 260.092 89.9644 258.056 89.7844Z" fill="#FFCFCF"/>
<path d="M245.346 75.9118C245.786 69.6992 251.194 70.2469 250.935 76.4696C250.496 82.6821 245.087 82.1344 245.346 75.9118Z" fill="#343433"/>
<path d="M235.898 76.3056C236.044 82.5319 241.473 82.2401 241.507 76.0122C241.362 69.7858 235.933 70.0776 235.898 76.3056Z" fill="#343433"/>
<path d="M321.725 278.025C324.868 279.028 327.885 275.912 326.772 272.805L319.313 251.856C318.118 248.494 313.384 248.45 311.933 251.785L310.02 256.172C309.628 257.072 309.768 258.119 310.378 258.884L316.502 266.552C317.232 267.461 316.069 268.664 315.131 267.971L307.262 262.108C306.476 261.518 305.425 261.418 304.539 261.841L300.22 263.896C296.937 265.458 297.139 270.189 300.54 271.27L321.719 278.02L321.725 278.025Z" fill="#4DAFFF"/>
<path d="M138.847 263.219C123.556 261.194 127.895 238.319 142.89 241.685C131.321 229.79 150.799 214.131 159.911 227.974C160.118 211.377 184.962 214.074 181.625 230.316C193.497 218.725 209.168 238.195 195.327 247.331C211.915 247.549 209.217 272.392 192.983 269.05C204.568 280.936 185.103 296.612 175.977 282.765C175.769 299.361 150.926 296.665 154.264 280.423C142.377 292.01 126.721 272.532 140.576 263.399L138.862 263.211L138.847 263.219Z" fill="#FFDEA3"/>
<path d="M128.146 250.173C127.566 253.244 128.021 256.556 129.746 259.272C131.286 261.698 133.783 263.555 137.235 264.341C135.158 266.454 134.067 268.902 133.815 271.402C133.479 274.745 134.655 278.028 136.684 280.552C138.712 283.076 141.666 284.928 145.001 285.316C147.477 285.603 150.079 285.072 152.569 283.523C152.61 286.451 153.566 288.927 155.143 290.855C157.269 293.453 160.423 294.941 163.642 295.289C166.861 295.638 170.258 294.858 172.89 292.773C174.843 291.226 176.306 289.011 176.971 286.156C179.071 288.198 181.497 289.271 183.976 289.518C187.316 289.851 190.597 288.671 193.118 286.639C195.64 284.607 197.491 281.651 197.877 278.314C198.163 275.837 197.631 273.235 196.083 270.745C199.009 270.705 201.483 269.749 203.41 268.172C206.008 266.047 207.496 262.894 207.845 259.675C208.194 256.456 207.415 253.057 205.332 250.424C203.784 248.469 201.569 247.004 198.714 246.337C200.757 244.235 201.831 241.806 202.078 239.325C202.41 235.984 201.231 232.701 199.201 230.179C197.17 227.657 194.216 225.806 190.881 225.42C188.406 225.133 185.806 225.665 183.319 227.212C183.278 224.285 182.322 221.811 180.745 219.884C178.619 217.285 175.466 215.798 172.247 215.449C169.028 215.101 165.629 215.88 162.997 217.965C161.045 219.513 159.582 221.727 158.917 224.58C156.82 222.541 154.395 221.469 151.919 221.221C148.579 220.887 145.297 222.065 142.774 224.096C140.251 226.126 138.397 229.08 138.007 232.417C137.719 234.884 138.243 237.477 139.775 239.96C137.118 239.999 134.812 240.84 132.95 242.233C130.36 244.17 128.725 247.102 128.146 250.173Z" stroke="#FFCF7B" stroke-opacity="0.83" stroke-width="2.77912"/>
<path d="M169.992 251.354C171.47 254.447 174.742 256.3 178.113 255.242C181.484 254.184 183.074 250.758 182.5 247.382" stroke="#343433" stroke-width="3.11273" stroke-linecap="round" stroke-linejoin="round"/>
<path d="M161.983 253.87C162.532 257.255 160.914 260.643 157.543 261.701C154.172 262.759 150.905 260.858 149.452 257.756" stroke="#343433" stroke-width="3.11273" stroke-linecap="round" stroke-linejoin="round"/>
<path d="M192.445 259.928C194.309 259.343 195.345 257.357 194.76 255.494C194.175 253.63 192.19 252.593 190.326 253.178C188.463 253.763 187.426 255.748 188.011 257.612C188.596 259.476 190.581 260.513 192.445 259.928Z" fill="#FF0808"/>
<path d="M148.49 273.723C150.354 273.139 151.391 271.153 150.806 269.29C150.221 267.426 148.236 266.389 146.372 266.974C144.508 267.559 143.471 269.544 144.056 271.408C144.641 273.272 146.626 274.308 148.49 273.723Z" fill="#FF0808"/>
<path d="M173.753 261.445C174.169 262.772 174.124 266.056 170.576 267.169C167.087 268.264 165.121 265.611 164.706 264.285" stroke="#343433" stroke-width="3.11273" stroke-linecap="round" stroke-linejoin="round"/>
</svg>
