<svg id="eHOfYBSdFtN1" xmlns="http://www.w3.org/2000/svg" xmlns:xlink="http://www.w3.org/1999/xlink" viewBox="0 0 281 94" shape-rendering="geometricPrecision" text-rendering="geometricPrecision" project-id="e598c63ece4845f9bf82b965fce6bc40" export-id="d3edb04cb66a4124afc88147dfd14443" cached="true"><path d="M270.733,56c11.571,3.3816,13.36,15.0702,0,19.5739-21.419,10.0501-51.851-7.3149-73.889,4.3923-13.008,14.0037-45.781,15.4262-71.564,10.3455-21.218-7.0922-30.8158-13.7439-59.4921-14.5455-27.9956-.0016-82.1075,0-59.16632-14.866" fill="#2aa1fe" fill-opacity="0.14"/><path d="M270.733,56c11.571,3.3816,13.36,15.0702,0,19.5739-21.419,10.0501-51.851-7.3149-73.889,4.3923-13.008,14.0037-45.781,15.4262-71.564,10.3455-21.218-7.0922-30.8158-13.7439-59.4921-14.5455-27.9956-.0016-82.1075,0-59.16632-14.866" fill="none" stroke="#2aa1fe" stroke-width="2.18598" stroke-linecap="round" stroke-linejoin="round" stroke-miterlimit="10" stroke-dasharray="55.58,55.58"/><path d="M67.5483,1.63281c2.633,4.00683,5.6638,8.07643,8.4512,12.08789c2.8613,4.1178,5.5268,8.2588,7.5215,12.54l.6514,1.3975l1.3798-.6894c.3811-.1906.7896-.3825,1.2178-.584.4217-.1985.8634-.4068,1.2822-.6162l-.0009-.001c3.1666-1.5092,6.374-3.2618,9.5029-4.8692c3.0978-1.5915,6.1768-3.0699,9.2998-4.1767-4.433,11.7291-10.4622,22.7412-16.0312,34.2607-.0159.0127-.0304.0251-.045.0332-.0102.0057-.0189.0086-.0244.0108-12.4811-.1986-25.091-.0005-37.5244,0-.0136-.0107-.035-.0303-.0566-.0645-5.779-10.7605-11.6566-21.6197-17.5332-32.4765c2.2647,1.2316,4.507,2.488,6.7587,3.75c2.2736,1.2742,6.5866,3.478,8.8965,4.7334v0-1.5167c7.244717-8.7304,7.6123-11.7314,16.2539-23.81929Z" transform="translate(.367583 0)" fill="none" stroke="#000" stroke-width="3"/><path d="M68.08295,37.434337l15.6241-8.087088c-4.453823-7.236867-11.27834-18.21611-15.6241-22.748514q0,31.718325,0,30.835602Z" transform="translate(.46535-1.689049)" fill="none" stroke="#000" stroke-width="3"/><path d="M53.367838,26.9688L66.56971,35.745288" transform="matrix(1.279085 0 0 1-16.600018 0)" fill="none" stroke="#000" stroke-width="3"/></svg>
